<?xml version="1.0" encoding="UTF-8"?>
<svg height="100%" width="100%" role="img" aria-label="Box - contains your cards" viewBox="0 0 40 44" version="1.1" xmlns="http://www.w3.org/2000/svg" xmlns:xlink="http://www.w3.org/1999/xlink">
    <title>Box</title>
    <g id="page-1" stroke="none" stroke-width="1" fill="none" fill-rule="evenodd">
        <g id="box" fill="#000000" fill-rule="nonzero">
            <path d="M39.5586513,11.3004936 C39.5586513,10.4709981 39.1111599,9.69062026 38.3908095,9.27041547 L38.3526091,9.24858664 L21.0860265,0.266044935 C20.4093323,-0.0886732516 19.5962123,-0.0886732516 18.9195181,0.266044935 L1.68567774,9.23221552 L1.60927706,9.27587311 C0.888926616,9.69607747 0.441436642,10.4709987 0.441436642,11.3059513 C0.441436642,11.3659804 0.446893851,11.4205525 0.446893851,11.4805816 L0.446893851,31.6067378 C0.446893851,32.4362333 0.894383825,33.2166112 1.60927724,33.631359 L18.8158324,43.678066 C19.1814651,43.8908969 19.5907532,44.0000411 20.0000439,44.0000411 C20.4093342,44.0000411 20.8186254,43.8908969 21.1842555,43.678066 L38.3908107,33.6259019 C39.1057041,33.2056976 39.553194,32.4307763 39.553194,31.6012808 L39.553194,11.4751246 C39.5586513,11.4150954 39.5586513,11.3550663 39.5586513,11.3004942 L39.5586513,11.3004936 Z M20.0000256,3.76410985 L34.6089449,11.360521 L20.0000256,19.8683005 L5.39110626,11.360521 L20.0000256,3.76410985 Z M4.05408908,14.7494703 L18.2046173,22.9898549 L18.2046173,39.1486159 L4.05408908,30.8809461 L4.05408908,14.7494703 Z M21.800891,39.1486159 L21.800891,22.9898549 L35.9514192,14.7494703 L35.9514192,30.8809461 L21.800891,39.1486159 Z" id="shape"></path>
            <path d="M14.2972494,23.4209608 L8.81275477,20.332183 C7.94506001,19.8464938 6.84816108,20.1520952 6.36247184,21.0197913 C5.8767826,21.887486 6.18238401,22.9843849 7.05008006,23.4700742 L12.5345747,26.558852 C13.4022695,27.0445412 14.4991684,26.7389398 14.9848577,25.8712438 C15.4705469,25.003549 15.159488,23.9066501 14.2972494,23.4209608 L14.2972494,23.4209608 Z" id="path"></path>
        </g>
    </g>
</svg>